<svg role="img" viewBox="-1.2 -1.2 24 24" xmlns="http://www.w3.org/2000/svg" id="Langchain--Streamline-Simple-Icons" height="24" width="24" style="background-color: #000000ff">
  <desc>
    Langchain Streamline Icon: https://streamlinehq.com
  </desc>
  <title>LangChain</title>
  <path d="M5.48892 5.32575C2.46231 5.32575 0 7.781580000000001 0 10.8s2.4624 5.47425 5.48892 5.47425h10.622160000000001C19.13769 16.27425 21.6 13.81842 21.6 10.8s-2.4624 -5.47425 -5.48892 -5.47425ZM5.37966 7.0659c0.4437 0.01116 0.918 0.22464 1.1457 0.56052 0.33057000000000003 0.41328 0.43002 0.96012 0.80496 1.3438800000000002 0.50436 0.55062 1.0791000000000002 1.0354500000000002 1.54449 1.6218000000000001 0.44028 0.53586 0.7547400000000001 1.16433 1.02924 1.7977500000000002 0.11196 0.21015 0.11313000000000001 0.46818 0.279 0.64773 0.08172 0.10836 0.48113999999999996 0.40347 0.39447000000000004 0.50805 0.04995 0.10836 0.42318 0.25739999999999996 0.29367 0.36243000000000003 -0.17496 0.036000000000000004 -0.37161 0.04284 -0.50544 -0.09666 -0.049409999999999996 0.1134 -0.1647 0.05364 -0.25371 0.038880000000000005a3.6 3.6 0 0 0 -0.022500000000000003 0.06624000000000001c-0.29592 0.01971 -0.51786 -0.28134 -0.6588 -0.5085 -0.27999 -0.1512 -0.59778 -0.24318 -0.8838 -0.40140000000000003 -0.016380000000000002 0.26055 0.04068 0.58365 -0.2079 0.75177 -0.0126 0.50085 0.75924 0.05904000000000001 0.82998 0.43236 -0.0549 0.006030000000000001 -0.11574 -0.00855 -0.15966 0.03357 -0.20151 0.19548000000000001 -0.43245 -0.14805000000000001 -0.6646500000000001 -0.0063 -0.31176 0.1566 -0.34272 0.28449 -0.72864 0.31679999999999997 -0.02133 -0.032310000000000005 -0.012870000000000001 -0.05328 0.00531 -0.07299000000000001 0.10863 -0.12591 0.11655 -0.27414 0.30204000000000003 -0.32787 -0.19098 -0.03006 -0.35091000000000006 0.07497 -0.51174 0.15813 -0.20907 0.0855 -0.20736 -0.19269000000000003 -0.52902 0.014760000000000002 -0.035640000000000005 -0.02898 -0.01872 -0.05535 0.00162 -0.07776000000000001 0.08172 -0.09963000000000001 0.18918000000000001 -0.1143 0.3105 -0.10872000000000001 -0.5967 -0.33174 -0.87759 0.40563 -1.15317 0.038880000000000005 -0.0828 0.02187 -0.11385 0.09612000000000001 -0.16605 0.14868 -0.045000000000000005 -0.04932 -0.01107 -0.10908000000000001 -0.008910000000000001 -0.16713 -0.05382 -0.0252 -0.12204 -0.0369 -0.10611000000000001 -0.12294000000000001 -0.10539 -0.03555 -0.17892 0.02655 -0.25739999999999996 0.08568 -0.07083 -0.05472 0.04788 -0.13428 0.06984 -0.19125 0.06318 -0.10944 0.20700000000000002 -0.022500000000000003 0.27999 -0.10134000000000001 0.20754 -0.11772 0.4968000000000001 0.07326 0.73395 0.04095 0.18270000000000003 0.022949999999999998 0.40896000000000005 -0.16425 0.31734 -0.35100000000000003 -0.19538999999999998 -0.24903 -0.1611 -0.5747399999999999 -0.16551000000000002 -0.87255 -0.024120000000000003 -0.17361 -0.4419 -0.39438 -0.56268 -0.58158 -0.14931 -0.16857 -0.2655 -0.36423 -0.38187000000000004 -0.55638 -0.41994000000000004 -0.8107200000000001 -0.28781999999999996 -1.8525599999999998 -0.8169299999999999 -2.6052299999999997 -0.23940000000000003 0.13194 -0.55125 0.06966 -0.75762 -0.1071 -0.11141999999999999 0.10125 -0.11628000000000001 0.23381999999999997 -0.12510000000000002 0.37449000000000005 -0.2673 -0.26658000000000004 -0.23337 -0.77031 -0.019799999999999998 -1.06695 0.08721 -0.11718 0.19143000000000002 -0.21357 0.3078 -0.29844000000000004 0.02628 -0.01917 0.035190000000000006 -0.03771 0.03465 -0.06723 0.10566 -0.47402999999999995 0.51876 -0.66519 0.96246 -0.65403m11.16639 0.41400000000000003c0.50175 0 0.9725400000000001 0.19431 1.3266 0.54738s0.549 0.82305 0.549 1.3233599999999999c0 0.5004000000000001 -0.19503 0.9702000000000001 -0.549 1.32282v0.00054l-0.8118000000000001 0.80955a1.872 1.872 0 0 1 -0.77373 0.46493999999999996l-0.014760000000000002 0.00423 -0.00522 0.014760000000000002a1.845 1.845 0 0 1 -0.4266 0.65772l-0.81162 0.80955c-0.35406000000000004 0.35316000000000003 -0.8253 0.54747 -1.32705 0.54747s-0.9725400000000001 -0.1944 -1.3266 -0.54747c-0.7317 -0.72963 -0.7317 -1.91646 0 -2.64618l0.81171 -0.80955a1.8504 1.8504 0 0 1 0.7722 -0.46287l0.015300000000000001 -0.00477 0.00522 -0.014220000000000002a1.863 1.863 0 0 1 0.42768 -0.6603300000000001l0.81162 -0.80955c0.35406000000000004 -0.35316000000000003 0.8253900000000001 -0.54747 1.32705 -0.54747zm0 0.80685a1.062 1.062 0 0 0 -0.75492 0.31158l-0.81162 0.80955a1.0629000000000002 1.0629000000000002 0 0 0 -0.30843000000000004 0.8326800000000001l0.00477 0.051480000000000005c0.029070000000000002 0.23868 0.1341 0.45396 0.30366 0.62253 0.117 0.11664 0.24597 0.19026 0.40239 0.24174a0.81 0.81 0 0 1 0.0126 0.14238 0.7956 0.7956 0 0 1 -0.23481000000000002 0.56736l-0.04986 0.04986c-0.27117 -0.09252 -0.49725 -0.2277 -0.70146 -0.43128a1.854 1.854 0 0 1 -0.51849 -0.98712l-0.008910000000000001 -0.05202 -0.041490000000000006 0.033120000000000004a0.9900000000000001 0.9900000000000001 0 0 0 -0.07884 0.07146l-0.81216 0.80955c-0.41607 0.41490000000000005 -0.41607 1.0908 0 1.5057 0.20799 0.20745000000000002 0.48150000000000004 0.3114 0.75546 0.31149000000000004 0.27387 0 0.54693 -0.10404 0.75492 -0.31158l0.81171 -0.80955c0.41607 -0.41490000000000005 0.41607 -1.09017 0 -1.5057a1.053 1.053 0 0 0 -0.39303 -0.24741 0.9 0.9 0 0 1 -0.0126 -0.14499c0 -0.23319 0.09207 -0.4545 0.26109000000000004 -0.62307 0.27171 0.09252 0.513 0.24245999999999998 0.71658 0.4455 0.27063000000000004 0.26991 0.44946 0.6111000000000001 0.5180400000000001 0.98712l0.00945 0.05202 0.04095 -0.03357a0.9900000000000001 0.9900000000000001 0 0 0 0.07983 -0.07146l0.8118000000000001 -0.80964c0.41598 -0.41490000000000005 0.41652 -1.09116 0 -1.50615a1.062 1.062 0 0 0 -0.75555 -0.31158Zm-8.975700000000002 4.64103 -0.00054 0.00054c-0.07137 0.27702000000000004 -0.09432 0.74862 -0.4554 0.7623 -0.0297 0.15984 0.11052000000000001 0.22005 0.23895000000000002 0.16866 0.12689999999999999 -0.058050000000000004 0.18729 0.04572 0.23013 0.14912999999999998 0.19593000000000002 0.02853 0.48546 -0.06525 0.49644 -0.29682 -0.29250000000000004 -0.16803 -0.38277 -0.48761999999999994 -0.50958 -0.78381" fill="#ffffff" stroke-width="1"></path>
</svg>