<svg width="56" height="56" viewBox="0 0 56 56" fill="none" xmlns="http://www.w3.org/2000/svg">
<path d="M27.8879 12.5253C19.99 12.5253 20.4831 15.9503 20.4831 15.9503L20.4919 19.4988H28.0288V20.5641H17.4984C17.4984 20.5641 12.4445 19.9909 12.4445 27.9599C12.4445 35.9291 16.8556 35.6465 16.8556 35.6465H19.4882V31.9485C19.4882 31.9485 19.3463 27.5373 23.8289 27.5373H31.3042C31.3042 27.5373 35.504 27.6052 35.504 23.4783V16.6548C35.504 16.6548 36.1418 12.5253 27.8879 12.5253ZM23.7321 14.9116C23.9102 14.9114 24.0866 14.9464 24.2512 15.0145C24.4157 15.0825 24.5653 15.1824 24.6912 15.3083C24.8171 15.4343 24.917 15.5838 24.9851 15.7484C25.0532 15.913 25.0881 16.0893 25.088 16.2674C25.0881 16.4455 25.0532 16.6219 24.9851 16.7865C24.917 16.9511 24.8171 17.1006 24.6912 17.2266C24.5653 17.3525 24.4157 17.4524 24.2512 17.5204C24.0866 17.5885 23.9102 17.6235 23.7321 17.6233C23.554 17.6235 23.3776 17.5885 23.213 17.5204C23.0485 17.4524 22.8989 17.3525 22.773 17.2266C22.6471 17.1006 22.5472 16.9511 22.4791 16.7865C22.411 16.6219 22.3761 16.4455 22.3762 16.2674C22.3761 16.0893 22.411 15.913 22.4791 15.7484C22.5472 15.5838 22.6471 15.4343 22.773 15.3083C22.8989 15.1824 23.0485 15.0825 23.213 15.0145C23.3776 14.9464 23.554 14.9114 23.7321 14.9116Z" fill="#0891B2"/>
<path d="M28.1122 43.4747C36.0102 43.4747 35.517 40.0496 35.517 40.0496L35.5083 36.5013H27.9713V35.436H38.5017C38.5017 35.436 43.5556 36.0092 43.5556 28.04C43.5556 20.0708 39.1444 20.3535 39.1444 20.3535H36.5118V24.0514C36.5118 24.0514 36.6538 28.4626 32.1711 28.4626H24.6959C24.6959 28.4626 20.496 28.3947 20.496 32.5217V39.3453C20.496 39.3453 19.8583 43.4747 28.1121 43.4747H28.1122ZM32.2681 41.0887C32.0899 41.0888 31.9136 41.0539 31.749 40.9858C31.5844 40.9177 31.4349 40.8178 31.3089 40.6919C31.183 40.566 31.0831 40.4164 31.0151 40.2518C30.947 40.0873 30.912 39.9109 30.9122 39.7328C30.912 39.5547 30.9469 39.3783 31.015 39.2137C31.0831 39.0491 31.183 38.8995 31.3089 38.7736C31.4348 38.6476 31.5844 38.5478 31.749 38.4797C31.9135 38.4116 32.0899 38.3766 32.2681 38.3768C32.4462 38.3766 32.6225 38.4116 32.7871 38.4797C32.9517 38.5477 33.1012 38.6476 33.2272 38.7736C33.3531 38.8995 33.453 39.049 33.521 39.2136C33.5891 39.3782 33.6241 39.5546 33.6239 39.7327C33.6241 39.9108 33.5891 40.0871 33.521 40.2517C33.453 40.4163 33.3531 40.5658 33.2272 40.6918C33.1012 40.8177 32.9517 40.9176 32.7871 40.9857C32.6225 41.0537 32.4462 41.0887 32.2681 41.0885V41.0887Z" fill="#FACC15"/>
</svg>
